<?xml version="1.0"?>
<svg xmlns="http://www.w3.org/2000/svg" height="512px" viewBox="0 -74 512 512" width="512px"><g><path d="m91.574219 348.863281h-59.578125c-6.722656 0-12.191406-5.46875-12.191406-12.191406s5.46875-12.191406 12.191406-12.191406h365.550781c4.15625 0 7.523437-3.367188 7.523437-7.523438s-3.367187-7.527343-7.523437-7.527343h-358.027344v-28.613282c13.035157-3.171875 22.746094-14.933594 22.746094-28.933594 0-13.996093-9.710937-25.761718-22.746094-28.929687v-86.175781c0-2.113282-.886719-4.128906-2.449219-5.554688-1.5625-1.425781-3.65625-2.132812-5.761718-1.9375-.496094.046875-.953125.066406-1.394532.066406-8.195312 0-14.863281-6.667968-14.863281-14.863281 0-8.195312 6.667969-14.863281 14.863281-14.863281 8.195313 0 14.863282 6.667969 14.863282 14.863281 0 1.53125-.230469 3.035157-.6875 4.480469-.90625 2.871094-.015625 6.007812 2.269531 7.972656l74.25 63.859375c3.089844 2.65625 7.738281 2.371094 10.480469-.648437l46.648437-51.40625c2.792969-3.078125 2.5625-7.835938-.515625-10.628906-3.078125-2.792969-7.835937-2.5625-10.628906.515624l-41.726562 45.980469-65.300782-56.164062c.171875-1.308594.261719-2.632813.261719-3.960938 0-16.492187-13.421875-29.914062-29.914063-29.914062-16.496093 0-29.914062 13.417969-29.914062 29.914062 0 14.636719 10.566406 26.851563 24.46875 29.417969v79.300781c-12.535156 3.511719-21.761719 15.03125-21.761719 28.675781 0 13.644532 9.226563 25.167969 21.761719 28.675782v29.9375c-11.371094 3.273437-19.714844 13.765625-19.714844 26.175781 0 15.023437 12.21875 27.242187 27.242188 27.242187h59.578125c4.15625 0 7.527343-3.367187 7.527343-7.523437s-3.371093-7.527344-7.527343-7.527344zm-73.816407-96.980469c0-8.121093 6.605469-14.730468 14.726563-14.730468 8.125 0 14.730469 6.609375 14.730469 14.730468 0 8.121094-6.605469 14.730469-14.730469 14.730469-8.121094 0-14.726563-6.609375-14.726563-14.730469zm0 0" data-original="#000000" class="active-path" data-old_color="#000000" fill="#FCFCFC"/><path d="m300.742188 236.976562c0-24.640624-20.046876-44.683593-44.6875-44.683593-24.640626 0-44.6875 20.042969-44.6875 44.683593 0 24.640626 20.046874 44.6875 44.6875 44.6875 24.640624 0 44.6875-20.046874 44.6875-44.6875zm-74.324219 0c0-16.339843 13.296875-29.632812 29.636719-29.632812 16.339843 0 29.636718 13.292969 29.636718 29.632812 0 16.34375-13.296875 29.636719-29.636718 29.636719-16.34375 0-29.636719-13.292969-29.636719-29.636719zm0 0" data-original="#000000" class="active-path" data-old_color="#000000" fill="#FCFCFC"/><path d="m107.035156 251.882812c0 16.421876 13.359375 29.78125 29.78125 29.78125s29.78125-13.359374 29.78125-29.78125c0-16.417968-13.359375-29.777343-29.78125-29.777343-16.417968 0-29.78125 13.359375-29.78125 29.777343zm44.511719 0c0 8.121094-6.609375 14.730469-14.730469 14.730469s-14.730468-6.609375-14.730468-14.730469c0-8.121093 6.609374-14.730468 14.730468-14.730468s14.730469 6.609375 14.730469 14.730468zm0 0" data-original="#000000" class="active-path" data-old_color="#000000" fill="#FCFCFC"/><path d="m509.402344 251.882812c0-13.683593-9.277344-25.230468-21.871094-28.707031v-79.269531c13.902344-2.566406 24.46875-14.78125 24.46875-29.417969 0-16.496093-13.417969-29.914062-29.914062-29.914062-16.496094 0-29.914063 13.417969-29.914063 29.914062 0 1.328125.085937 2.652344.261719 3.957031l-65.300782 56.164063-107.953124-118.953125c5.984374-6.035156 9.476562-14.265625 9.476562-23 0-18.007812-14.648438-32.65625-32.65625-32.65625s-32.65625 14.648438-32.65625 32.65625c0 8.734375 3.488281 16.964844 9.472656 23l-45.960937 50.644531c-2.789063 3.078125-2.558594 7.835938.519531 10.628907 3.074219 2.792968 7.835938 2.5625 10.628906-.515626l51.441406-56.6875c1.546876-1.703124 2.226563-4.019531 1.847657-6.289062-.375-2.269531-1.769531-4.242188-3.785157-5.355469-5.621093-3.105469-9.117187-9.015625-9.117187-15.425781 0-9.707031 7.898437-17.605469 17.609375-17.605469 9.707031 0 17.605469 7.898438 17.605469 17.605469 0 6.410156-3.492188 12.320312-9.117188 15.425781-2.015625 1.113281-3.410156 3.085938-3.785156 5.355469-.378906 2.269531.304687 4.585938 1.851563 6.289062l118.355468 130.421876c2.738282 3.023437 7.386719 3.308593 10.480469.648437l74.25-63.855469c2.28125-1.964844 3.175781-5.101562 2.269531-7.972656-.457031-1.445312-.691406-2.953125-.691406-4.480469 0-8.195312 6.671875-14.863281 14.867188-14.863281 8.195312 0 14.863281 6.667969 14.863281 14.863281 0 8.195313-6.667969 14.863281-14.863281 14.863281-.441407 0-.898438-.023437-1.398438-.066406-2.109375-.191406-4.195312.511719-5.757812 1.9375-1.5625 1.425782-2.449219 3.441406-2.449219 5.554688v86.199218c-12.984375 3.207032-22.636719 14.949219-22.636719 28.90625 0 13.960938 9.652344 25.699219 22.636719 28.910157v28.640625h-44.832031c-4.160157 0-7.527344 3.367187-7.527344 7.523437s3.367187 7.527344 7.527344 7.527344h52.363281c6.722656 0 12.191406 5.46875 12.191406 12.191406 0 6.722657-5.46875 12.191407-12.191406 12.191407h-358.335938c-4.15625 0-7.523437 3.367187-7.523437 7.523437s3.367187 7.523437 7.523437 7.523437h358.335938c15.023437 0 27.242187-12.21875 27.242187-27.238281 0-12.414062-8.347656-22.910156-19.722656-26.179687v-29.90625c12.59375-3.472656 21.871094-15.023438 21.871094-28.707032zm-29.78125 14.730469c-8.121094 0-14.726563-6.609375-14.726563-14.730469 0-8.121093 6.605469-14.730468 14.726563-14.730468 8.125 0 14.730468 6.609375 14.730468 14.730468 0 8.121094-6.605468 14.730469-14.730468 14.730469zm0 0" data-original="#000000" class="active-path" data-old_color="#000000" fill="#FCFCFC"/><path d="m405.070312 251.882812c0-16.417968-13.359374-29.777343-29.78125-29.777343-16.417968 0-29.777343 13.355469-29.777343 29.777343 0 16.421876 13.359375 29.78125 29.777343 29.78125 16.421876 0 29.78125-13.359374 29.78125-29.78125zm-44.507812 0c0-8.121093 6.605469-14.730468 14.730469-14.730468 8.121093 0 14.730469 6.609375 14.730469 14.730468 0 8.121094-6.609376 14.730469-14.730469 14.730469-8.125 0-14.730469-6.609375-14.730469-14.730469zm0 0" data-original="#000000" class="active-path" data-old_color="#000000" fill="#FCFCFC"/></g> </svg>
