<?xml version="1.0"?>
<svg xmlns="http://www.w3.org/2000/svg" xmlns:xlink="http://www.w3.org/1999/xlink" version="1.1" id="Capa_1" x="0px" y="0px" viewBox="0 0 377.48 377.48" style="enable-background:new 0 0 377.48 377.48;" xml:space="preserve" width="512px" height="512px" class=""><g><g>
	<g>
		<path d="M156.14,208.76c-1.469-1.955-3.796-3.074-6.24-3c-1.686-0.199-3.382,0.275-4.72,1.32c-1.906,2.253-3.695,4.603-5.36,7.04    c-5.94,8.44-14.111,15.061-23.6,19.12c-2.886,1.264-5.656,2.776-8.28,4.52c-1.634,1.347-2.501,3.41-2.32,5.52    c-0.002,2.132,0.848,4.177,2.36,5.68c1.364,1.625,3.359,2.586,5.48,2.64c4.293,0,12.653-4.747,25.08-14.24v66.6    c-0.224,3.17,0.746,6.309,2.72,8.8c1.836,2.018,4.474,3.117,7.2,3c6.693,0,10.04-4.907,10.04-14.72v-84    C158.673,214.092,157.841,211.173,156.14,208.76z" data-original="#000000" class="active-path" data-old_color="#000000" fill="#FCFAFA"/>
	</g>
</g><g>
	<g>
		<path d="M307.54,36.76h-2.8v-7.4C304.696,13.163,291.577,0.044,275.38,0c-16.197,0.044-29.316,13.163-29.36,29.36v7.4H131.58v-7.4    C131.536,13.163,118.417,0.044,102.22,0C85.976-0.022,72.784,13.116,72.74,29.36v7.4h-2.8C41.473,36.826,18.438,59.933,18.46,88.4    v237.64c0.088,28.389,23.091,51.374,51.48,51.44h237.6c28.404-0.066,51.414-23.076,51.48-51.48V88.4    C359.042,59.933,336.007,36.826,307.54,36.76z M257.02,42.52V29.36c0.044-10.033,8.167-18.156,18.2-18.2    c10.033,0.044,18.156,8.167,18.2,18.2v26.32c-0.022,10.042-8.158,18.178-18.2,18.2c-10.033-0.044-18.156-8.167-18.2-18.2V42.52z     M84.02,42.52V29.36c0.044-10.033,8.167-18.156,18.2-18.2c10.033,0.044,18.156,8.167,18.2,18.2v26.32    c-0.022,10.042-8.158,18.178-18.2,18.2c-10.042-0.022-18.178-8.158-18.2-18.2V42.52z M307.54,366.36H69.94    c-22.241-0.066-40.254-18.079-40.32-40.32V149.2h318.24l0.16,176.84C347.954,348.343,329.843,366.382,307.54,366.36z     M348.02,138.04H29.62V88.4c0.088-22.225,18.095-40.214,40.32-40.28h2.8v7.56c0.044,16.197,13.163,29.316,29.36,29.36    c16.197-0.044,29.316-13.163,29.36-29.36v-7.56H245.9v7.56c0.044,16.197,13.163,29.316,29.36,29.36    c16.244,0.022,29.436-13.116,29.48-29.36v-7.56h2.96c22.241,0.066,40.254,18.079,40.32,40.32V138.04z" data-original="#000000" class="active-path" data-old_color="#000000" fill="#FCFAFA"/>
	</g>
</g><g>
	<g>
		<path d="M155.94,90.6c1.206,0.098,2.404-0.258,3.36-1c0.731-0.695,1.125-1.672,1.08-2.68c0.039-0.995-0.355-1.958-1.08-2.64    c-0.973-0.699-2.17-1.012-3.36-0.88h-22.28c-1.123-0.033-2.241,0.172-3.28,0.6c-0.835,0.377-1.503,1.045-1.88,1.88    c-0.434,1.051-0.638,2.183-0.6,3.32v36c-0.119,1.555,0.352,3.097,1.32,4.32c1.84,1.878,4.854,1.909,6.731,0.069    c0.023-0.023,0.046-0.046,0.069-0.069c0.977-1.233,1.449-2.792,1.32-4.36v-15.44h15.4c1.148,0.081,2.286-0.261,3.2-0.96    c0.733-0.66,1.129-1.615,1.08-2.6c0.038-0.983-0.357-1.933-1.08-2.6c-0.923-0.712-2.078-1.055-3.24-0.96h-15.36v-12H155.94z" data-original="#000000" class="active-path" data-old_color="#000000" fill="#FCFAFA"/>
	</g>
</g><g>
	<g>
		<path d="M240.42,105.36c4.272-1.58,7.079-5.686,7-10.24c0.019-1.364-0.212-2.719-0.68-4c-0.442-1.21-1.092-2.333-1.92-3.32    c-0.828-0.984-1.815-1.823-2.92-2.48c-1.351-0.81-2.845-1.353-4.4-1.6c-1.919-0.291-3.859-0.425-5.8-0.4h-14.96    c-1.576-0.139-3.143,0.35-4.36,1.36c-1.023,1.242-1.512,2.838-1.36,4.44v35.08c-0.135,1.581,0.337,3.155,1.32,4.4    c1.221,1.033,2.809,1.524,4.4,1.36h14.28c2.166,0.023,4.33-0.097,6.48-0.36c1.677-0.206,3.318-0.637,4.88-1.28    c2.228-0.965,4.111-2.583,5.4-4.64c1.338-2.102,2.033-4.549,2-7.04C249.811,111.107,245.864,106.35,240.42,105.36z M220.42,90.52    h7.52c2.612-0.138,5.225,0.256,7.68,1.16c1.739,0.877,2.745,2.746,2.52,4.68c0.015,1.055-0.262,2.093-0.8,3    c-0.619,1.204-1.68,2.121-2.96,2.56c-1.766,0.515-3.602,0.744-5.44,0.68h-8.68L220.42,90.52z M239.98,116.04    c0.027,4.613-3.16,6.92-9.56,6.92h-10.16v-13.64h9.84c2.567-0.156,5.127,0.397,7.4,1.6    C239.19,112.054,240.138,114.011,239.98,116.04z" data-original="#000000" class="active-path" data-old_color="#000000" fill="#FCFAFA"/>
	</g>
</g><g>
	<g>
		<path d="M268.46,276.28c-2.876-1.126-5.954-1.643-9.04-1.52h-3.16v-56.8c0-8.507-3.707-12.76-11.12-12.76    c-2.201-0.032-4.327,0.801-5.92,2.32c-2.357,2.301-4.524,4.789-6.48,7.44l-38.84,52l-2.72,3.56c-0.76,0.96-1.44,2-2.12,3.04    c-0.637,0.935-1.16,1.942-1.56,3c-0.314,0.9-0.476,1.846-0.48,2.8c-0.158,3.227,1.115,6.359,3.48,8.56    c3.018,2.364,6.821,3.494,10.64,3.16h36.8v13.68c-0.229,2.991,0.67,5.959,2.52,8.32c3.612,3.667,9.513,3.712,13.18,0.1    c0.034-0.033,0.067-0.066,0.1-0.1c1.836-2.367,2.721-5.334,2.48-8.32v-13.68h4.52c2.915,0.192,5.821-0.476,8.36-1.92    c1.915-1.445,2.956-3.769,2.76-6.16C272.241,280.27,270.886,277.59,268.46,276.28z M237.94,274.72h-31.56l31.56-42.64V274.72z" data-original="#000000" class="active-path" data-old_color="#000000" fill="#FCFAFA"/>
	</g>
</g><g>
	<g>
		<path d="M202.22,123.64c-0.934-0.76-2.117-1.146-3.32-1.08h-22.16v-13.32h19.6c1.168,0.091,2.327-0.266,3.24-1    c0.704-0.677,1.083-1.624,1.04-2.6c0.037-0.971-0.358-1.909-1.08-2.56c-0.923-0.712-2.078-1.055-3.24-0.96h-19.56V90.68h21.28    c1.206,0.098,2.404-0.258,3.36-1c0.731-0.695,1.125-1.672,1.08-2.68c0.039-0.995-0.355-1.958-1.08-2.64    c-0.956-0.741-2.154-1.098-3.36-1h-24.8c-1.123-0.033-2.241,0.172-3.28,0.6c-0.835,0.377-1.503,1.045-1.88,1.88    c-0.434,1.051-0.638,2.183-0.6,3.32v35.08c-0.192,1.617,0.269,3.244,1.28,4.52c1.24,1.027,2.838,1.516,4.44,1.36h25.68    c1.211,0.087,2.41-0.284,3.36-1.04c0.766-0.677,1.191-1.659,1.16-2.68C203.423,125.353,202.998,124.342,202.22,123.64z" data-original="#000000" class="active-path" data-old_color="#000000" fill="#FCFAFA"/>
	</g>
</g></g> </svg>
