<svg height="512pt" viewBox="0 0 511 512" width="512pt" xmlns="http://www.w3.org/2000/svg" xmlns:xlink="http://www.w3.org/1999/xlink"><linearGradient id="a" gradientUnits="userSpaceOnUse" x1=".499808" x2="512.499808" y1="256" y2="256"><stop offset="0" stop-color="#80d8ff"/><stop offset="1" stop-color="#ea80fc"/></linearGradient><path d="m511.546875 147.71875-42.679687-133.484375c-2.503907-8.320313-10.304688-14.234375-19.148438-14.234375h-386.4375c-8.722656 0-16.605469 5.78125-19.148438 14.234375l-42.683593 133.484375c-2.117188 6.625-.640625 13.875 3.898437 19.144531l88.261719 102.449219c-8.679687 21.113281-13.089844 43.484375-13.089844 66.695312 0 97.042969 78.945313 175.992188 175.980469 175.992188s175.980469-78.949219 175.980469-175.992188c0-23.582031-4.671875-46.085937-13.121094-66.65625l88.292969-102.488281c4.539062-5.269531 6.015625-12.519531 3.894531-19.144531zm-105.441406-107.71875-43.09375 50.019531h-213.027344l-43.089844-50.019531zm-77.550781 90.019531-30.1875 35.039063c-13.425782-3.289063-27.445313-5.046875-41.867188-5.046875-14.207031 0-28.242188 1.691406-41.882812 5.027343l-30.167969-35.019531zm-285.59375 19.21875 28.488281-89.097656 103.378906 119.996094c-23.742187 12.511719-44.5 30.402343-60.398437 52.058593zm213.539062 322.761719c-74.980469 0-135.980469-61.007812-135.980469-135.992188 0-74.976562 60.707031-135.992187 135.980469-135.992187 74.980469 0 135.980469 61.003906 135.980469 135.992187 0 74.984376-61 135.992188-135.980469 135.992188zm142.039062-239.765625c-15.84375-21.628906-36.496093-39.519531-60.378906-52.085937l103.390625-120.003907 28.488281 89.09375zm0 0" fill="url(#a)"/></svg>